<?xml version="1.0" encoding="iso-8859-1"?>
<!-- Generator: Adobe Illustrator 19.1.0, SVG Export Plug-In . SVG Version: 6.00 Build 0)  -->
<svg version="1.1" id="Capa_1" xmlns="http://www.w3.org/2000/svg" xmlns:xlink="http://www.w3.org/1999/xlink" x="0px" y="0px"
	 viewBox="0 0 453.71 453.71" style="enable-background:new 0 0 453.71 453.71;" xml:space="preserve">
<g>
	<path d="M448.355,37.87v89.9c0,20.89-16.99,37.88-37.88,37.88h-22.61l-0.31,21.24c-0.04,2.54-1.36,4.89-3.51,6.24
		c-1.21,0.77-2.6,1.15-3.99,1.15c-1.07,0-2.15-0.23-3.16-0.69l-60.24-27.94h-32.18c-20.88,0-37.87-16.99-37.87-37.88v-89.9
		c0-20.88,16.99-37.87,37.87-37.87h126C431.365,0,448.355,16.99,448.355,37.87z M433.355,127.77v-89.9
		c0-12.61-10.26-22.87-22.88-22.87h-126c-12.61,0-22.87,10.26-22.87,22.87v89.9c0,12.62,10.26,22.88,22.87,22.88h33.84
		c1.08,0,2.16,0.24,3.15,0.69l51.26,23.78l0.25-17.08c0.06-4.1,3.4-7.39,7.5-7.39h30C423.095,150.65,433.355,140.39,433.355,127.77z
		"/>
	<path d="M380.025,65.12c0,11.35-5.77,21.7-15.43,27.68c-0.09,0.06-0.2,0.13-0.32,0.19c-6.66,3.82-10.64,10.81-10.39,18.28
		c0.14,4.14-3.11,7.61-7.25,7.74c-0.08,0.01-0.17,0.01-0.25,0.01c-4.03,0-7.36-3.2-7.49-7.26c-0.43-13.01,6.41-25.17,17.86-31.74
		c5.18-3.24,8.27-8.8,8.27-14.9c0-9.68-7.87-17.55-17.55-17.55c-9.67,0-17.54,7.87-17.54,17.55c0,4.14-3.36,7.5-7.5,7.5
		c-4.15,0-7.5-3.36-7.5-7.5c0-17.95,14.6-32.55,32.54-32.55C365.425,32.57,380.025,47.17,380.025,65.12z"/>
	<path d="M360.355,229.89v153.25c0,20.89-16.99,37.88-37.88,37.88h-188.34l-68.99,31.99c-1,0.47-2.08,0.7-3.15,0.7
		c-1.72,0-3.42-0.59-4.79-1.73c-2.23-1.85-3.19-4.82-2.48-7.62l5.94-23.34h-17.44c-20.88,0-37.87-16.99-37.87-37.88V229.89
		c0-20.88,16.99-37.87,37.87-37.87h279.25C343.365,192.02,360.355,209.01,360.355,229.89z M345.355,383.14V229.89
		c0-12.61-10.26-22.87-22.88-22.87H43.225c-12.61,0-22.87,10.26-22.87,22.87v153.25c0,12.62,10.26,22.88,22.87,22.88h27.09
		c2.31,0,4.5,1.07,5.92,2.89c1.42,1.83,1.91,4.21,1.34,6.46l-4.42,17.39l56.17-26.05c0.99-0.45,2.06-0.69,3.15-0.69h190
		C335.095,406.02,345.355,395.76,345.355,383.14z"/>
	<path d="M351.725,128.69c1.4,1.4,2.2,3.33,2.2,5.31c0,1.97-0.8,3.9-2.2,5.3c-1.39,1.4-3.33,2.2-5.3,2.2s-3.91-0.8-5.31-2.2
		c-1.39-1.4-2.19-3.33-2.19-5.3c0-1.98,0.8-3.91,2.19-5.31c1.4-1.39,3.33-2.19,5.31-2.19
		C348.395,126.5,350.335,127.3,351.725,128.69z"/>
	<path style="fill:#3DD0F2;" d="M345.355,229.89v153.25c0,12.62-10.26,22.88-22.88,22.88h-190c-1.09,0-2.16,0.24-3.15,0.69
		l-56.17,26.05l4.42-17.39c0.57-2.25,0.08-4.63-1.34-6.46c-1.42-1.82-3.61-2.89-5.92-2.89h-27.09c-12.61,0-22.87-10.26-22.87-22.88
		V229.89c0-12.61,10.26-22.87,22.87-22.87h279.25C335.095,207.02,345.355,217.28,345.355,229.89z M311.355,243.52
		c0-4.14-3.36-7.5-7.5-7.5h-242c-4.15,0-7.5,3.36-7.5,7.5s3.35,7.5,7.5,7.5h242C307.995,251.02,311.355,247.66,311.355,243.52z
		 M311.355,284.85c0-4.14-3.36-7.5-7.5-7.5h-242c-4.15,0-7.5,3.36-7.5,7.5c0,4.14,3.35,7.5,7.5,7.5h242
		C307.995,292.35,311.355,288.99,311.355,284.85z M311.355,326.18c0-4.14-3.36-7.5-7.5-7.5h-242c-4.15,0-7.5,3.36-7.5,7.5
		c0,4.15,3.35,7.5,7.5,7.5h242C307.995,333.68,311.355,330.33,311.355,326.18z M311.355,367.52c0-4.14-3.36-7.5-7.5-7.5h-242
		c-4.15,0-7.5,3.36-7.5,7.5c0,4.14,3.35,7.5,7.5,7.5h242C307.995,375.02,311.355,371.66,311.355,367.52z"/>
	<path d="M303.855,236.02c4.14,0,7.5,3.36,7.5,7.5s-3.36,7.5-7.5,7.5h-242c-4.15,0-7.5-3.36-7.5-7.5s3.35-7.5,7.5-7.5H303.855z"/>
	<path d="M303.855,277.35c4.14,0,7.5,3.36,7.5,7.5c0,4.14-3.36,7.5-7.5,7.5h-242c-4.15,0-7.5-3.36-7.5-7.5c0-4.14,3.35-7.5,7.5-7.5
		H303.855z"/>
	<path d="M303.855,318.68c4.14,0,7.5,3.36,7.5,7.5c0,4.15-3.36,7.5-7.5,7.5h-242c-4.15,0-7.5-3.35-7.5-7.5c0-4.14,3.35-7.5,7.5-7.5
		H303.855z"/>
	<path d="M303.855,360.02c4.14,0,7.5,3.36,7.5,7.5c0,4.14-3.36,7.5-7.5,7.5h-242c-4.15,0-7.5-3.36-7.5-7.5c0-4.14,3.35-7.5,7.5-7.5
		H303.855z"/>
</g>
<g>
</g>
<g>
</g>
<g>
</g>
<g>
</g>
<g>
</g>
<g>
</g>
<g>
</g>
<g>
</g>
<g>
</g>
<g>
</g>
<g>
</g>
<g>
</g>
<g>
</g>
<g>
</g>
<g>
</g>
</svg>
