<?xml version="1.0" encoding="iso-8859-1"?>
<!-- Generator: Adobe Illustrator 19.1.0, SVG Export Plug-In . SVG Version: 6.00 Build 0)  -->
<svg version="1.1" id="Capa_1" xmlns="http://www.w3.org/2000/svg" xmlns:xlink="http://www.w3.org/1999/xlink" x="0px" y="0px"
	 viewBox="0 0 447 447" style="enable-background:new 0 0 447 447;" xml:space="preserve">
<g>
	<path style="fill:#3DD0F2;" d="M432,105.39v23.19h-19.77v-8.56c0-4.14-3.36-7.5-7.5-7.5h-67.64c-4.14,0-7.5,3.36-7.5,7.5v8.56
		h-67.57c-12.06-4.24-25.02-6.55-38.52-6.55c-13.49,0-26.45,2.31-38.51,6.55H15v-23.19H432z"/>
	<path style="fill:#3DD0F2;" d="M432,348.67v23.18H15v-23.18h170c12.06,4.23,25.02,6.54,38.5,6.54c13.49,0,26.45-2.31,38.51-6.54
		H432z"/>
	<path d="M447,97.89v281.46c0,4.14-3.35,7.5-7.5,7.5H7.5c-4.14,0-7.5-3.36-7.5-7.5V97.89c0-4.14,3.36-7.5,7.5-7.5h25.37V67.65
		c0-4.14,3.36-7.5,7.5-7.5h82.91c4.14,0,7.5,3.36,7.5,7.5v22.74H439.5C443.65,90.39,447,93.75,447,97.89z M432,371.85v-23.18H262.01
		c-12.06,4.23-25.02,6.54-38.51,6.54c-13.48,0-26.44-2.31-38.5-6.54H15v23.18H432z M432,333.67V143.58h-19.77v30.98
		c0,4.15-3.36,7.5-7.5,7.5h-67.64c-4.14,0-7.5-3.35-7.5-7.5v-30.98h-38.63c29.72,21.15,49.14,55.87,49.14,95.04
		s-19.42,73.9-49.14,95.05H432z M432,128.58v-23.19H15v23.19h169.99c12.06-4.24,25.02-6.55,38.51-6.55c13.5,0,26.46,2.31,38.52,6.55
		h67.57v-8.56c0-4.14,3.36-7.5,7.5-7.5h67.64c4.14,0,7.5,3.36,7.5,7.5v8.56H432z M397.23,167.06v-39.54h-52.64v39.54H397.23z
		 M325.1,238.62c0-56.02-45.58-101.59-101.6-101.59c-56.01,0-101.59,45.57-101.59,101.59s45.58,101.59,101.59,101.59
		C279.52,340.21,325.1,294.64,325.1,238.62z M156.05,143.58H15v190.09h141.05c-29.72-21.15-49.14-55.88-49.14-95.05
		S126.33,164.73,156.05,143.58z M115.78,90.39V75.15H47.87v15.24H115.78z"/>
	<path style="fill:#FFFFFF;" d="M432,143.58v190.09H290.96c29.72-21.15,49.14-55.88,49.14-95.05s-19.42-73.89-49.14-95.04h38.63
		v30.98c0,4.15,3.36,7.5,7.5,7.5h67.64c4.14,0,7.5-3.35,7.5-7.5v-30.98H432z"/>
	<path style="fill:#F48C6C;" d="M223.5,137.03c56.02,0,101.6,45.57,101.6,101.59s-45.58,101.59-101.6,101.59
		c-56.01,0-101.59-45.57-101.59-101.59S167.49,137.03,223.5,137.03z M304.7,238.62c0-44.77-36.42-81.2-81.2-81.2
		c-44.77,0-81.19,36.43-81.19,81.2s36.42,81.2,81.19,81.2C268.28,319.82,304.7,283.39,304.7,238.62z"/>
	<path d="M223.5,157.42c44.78,0,81.2,36.43,81.2,81.2s-36.42,81.2-81.2,81.2c-44.77,0-81.19-36.43-81.19-81.2
		S178.73,157.42,223.5,157.42z M289.7,238.62c0-36.5-29.69-66.2-66.2-66.2c-36.5,0-66.19,29.7-66.19,66.2s29.69,66.2,66.19,66.2
		C260.01,304.82,289.7,275.12,289.7,238.62z"/>
	<path d="M277.16,238.62c0,4.14-3.36,7.5-7.5,7.5c-4.14,0-7.5-3.36-7.5-7.5c0-21.31-17.34-38.65-38.66-38.65
		c-4.14,0-7.5-3.36-7.5-7.5c0-4.15,3.36-7.5,7.5-7.5C253.09,184.97,277.16,209.04,277.16,238.62z"/>
	<path style="fill:#FFFFFF;" d="M223.5,172.42c36.51,0,66.2,29.7,66.2,66.2s-29.69,66.2-66.2,66.2c-36.5,0-66.19-29.7-66.19-66.2
		S187,172.42,223.5,172.42z M269.66,246.12c4.14,0,7.5-3.36,7.5-7.5c0-29.58-24.07-53.65-53.66-53.65c-4.14,0-7.5,3.35-7.5,7.5
		c0,4.14,3.36,7.5,7.5,7.5c21.32,0,38.66,17.34,38.66,38.65C262.16,242.76,265.52,246.12,269.66,246.12z M231,284.77
		c0-4.14-3.35-7.5-7.5-7.5c-21.31,0-38.65-17.34-38.65-38.65c0-4.14-3.36-7.5-7.5-7.5s-7.5,3.36-7.5,7.5
		c0,29.58,24.07,53.65,53.65,53.65C227.65,292.27,231,288.92,231,284.77z"/>
	<path d="M223.5,277.27c4.15,0,7.5,3.36,7.5,7.5c0,4.15-3.35,7.5-7.5,7.5c-29.58,0-53.65-24.07-53.65-53.65c0-4.14,3.36-7.5,7.5-7.5
		s7.5,3.36,7.5,7.5C184.85,259.93,202.19,277.27,223.5,277.27z"/>
	<path style="fill:#FFFFFF;" d="M15,143.58h141.05c-29.72,21.15-49.14,55.87-49.14,95.04s19.42,73.9,49.14,95.05H15V143.58z
		 M93.13,196.38c0-13.76-11.19-24.95-24.95-24.95s-24.96,11.19-24.96,24.95c0,13.76,11.2,24.96,24.96,24.96
		S93.13,210.14,93.13,196.38z"/>
	<rect x="47.87" y="75.15" style="fill:#F48C6C;" width="67.91" height="15.24"/>
	<path d="M68.18,171.43c13.76,0,24.95,11.19,24.95,24.95c0,13.76-11.19,24.96-24.95,24.96s-24.96-11.2-24.96-24.96
		C43.22,182.62,54.42,171.43,68.18,171.43z M78.13,196.38c0-5.49-4.46-9.95-9.95-9.95s-9.96,4.46-9.96,9.95
		c0,5.49,4.47,9.96,9.96,9.96S78.13,201.87,78.13,196.38z"/>
</g>
<g>
</g>
<g>
</g>
<g>
</g>
<g>
</g>
<g>
</g>
<g>
</g>
<g>
</g>
<g>
</g>
<g>
</g>
<g>
</g>
<g>
</g>
<g>
</g>
<g>
</g>
<g>
</g>
<g>
</g>
</svg>
