<?xml version="1.0" encoding="iso-8859-1"?>
<!-- Generator: Adobe Illustrator 19.1.0, SVG Export Plug-In . SVG Version: 6.00 Build 0)  -->
<svg version="1.1" id="Capa_1" xmlns="http://www.w3.org/2000/svg" xmlns:xlink="http://www.w3.org/1999/xlink" x="0px" y="0px"
	 viewBox="0 0 436.48 436.48" style="enable-background:new 0 0 436.48 436.48;" xml:space="preserve">
<g>
	<path d="M436.48,104.285v227.91c0,4.15-3.36,7.5-7.5,7.5H74.63c-4.15,0-7.5-3.35-7.5-7.5c0-32.88-26.75-59.62-59.63-59.62
		c-4.14,0-7.5-3.36-7.5-7.5v-93.66c0-4.14,3.36-7.5,7.5-7.5c32.88,0,59.63-26.75,59.63-59.63c0-4.14,3.35-7.5,7.5-7.5h354.35
		C433.12,96.785,436.48,100.145,436.48,104.285z M421.48,324.695v-212.91H81.75c-3.53,35.17-31.58,63.23-66.75,66.76v79.4
		c35.17,3.53,63.22,31.58,66.75,66.75H421.48z"/>
	<path style="fill:#3DD0F2;" d="M421.48,111.785v212.91H81.75c-3.53-35.17-31.58-63.22-66.75-66.75v-79.4
		c35.17-3.53,63.22-31.59,66.75-66.76H421.48z M408.38,304.095v-171.71c0-4.14-3.36-7.5-7.5-7.5H98.49c-3.28,0-6.19,2.14-7.16,5.28
		c-8.58,27.72-30.24,49.38-57.95,57.95c-3.14,0.98-5.28,3.88-5.28,7.17v45.92c0,3.28,2.14,6.19,5.28,7.16
		c27.71,8.58,49.37,30.24,57.95,57.95c0.97,3.14,3.88,5.28,7.16,5.28h302.39C405.02,311.595,408.38,308.245,408.38,304.095z"/>
	<path d="M408.38,132.385v171.71c0,4.15-3.36,7.5-7.5,7.5H98.49c-3.28,0-6.19-2.14-7.16-5.28c-8.58-27.71-30.24-49.37-57.95-57.95
		c-3.14-0.97-5.28-3.88-5.28-7.16v-45.92c0-3.29,2.14-6.19,5.28-7.17c27.71-8.57,49.37-30.23,57.95-57.95
		c0.97-3.14,3.88-5.28,7.16-5.28h302.39C405.02,124.885,408.38,128.245,408.38,132.385z M393.38,296.595v-156.71H103.87
		c-10.42,28.17-32.61,50.36-60.77,60.77v35.17c28.16,10.42,50.35,32.61,60.77,60.77H393.38z"/>
	<path d="M356.79,169.405c4.14,0,7.5,3.36,7.5,7.5c0,4.15-3.36,7.5-7.5,7.5H164.71c-4.14,0-7.5-3.35-7.5-7.5
		c0-4.14,3.36-7.5,7.5-7.5H356.79z"/>
	<path d="M356.79,210.745c4.14,0,7.5,3.36,7.5,7.5s-3.36,7.5-7.5,7.5H164.71c-4.14,0-7.5-3.36-7.5-7.5s3.36-7.5,7.5-7.5H356.79z"/>
	<path d="M356.79,252.075c4.14,0,7.5,3.36,7.5,7.5c0,4.14-3.36,7.5-7.5,7.5H164.71c-4.14,0-7.5-3.36-7.5-7.5
		c0-4.14,3.36-7.5,7.5-7.5H356.79z"/>
	<path d="M101.7,195.745c12.41,0,22.5,10.09,22.5,22.5c0,12.4-10.09,22.5-22.5,22.5c-12.4,0-22.5-10.1-22.5-22.5
		C79.2,205.835,89.3,195.745,101.7,195.745z M109.2,218.245c0-4.14-3.36-7.5-7.5-7.5c-4.13,0-7.5,3.36-7.5,7.5
		c0,4.13,3.37,7.5,7.5,7.5C105.84,225.745,109.2,222.375,109.2,218.245z"/>
</g>
<g>
</g>
<g>
</g>
<g>
</g>
<g>
</g>
<g>
</g>
<g>
</g>
<g>
</g>
<g>
</g>
<g>
</g>
<g>
</g>
<g>
</g>
<g>
</g>
<g>
</g>
<g>
</g>
<g>
</g>
</svg>
