<?xml version="1.0" encoding="UTF-8" standalone="no"?>
<!-- Created with Inkscape (http://www.inkscape.org/) -->

<svg xmlns:dc="http://purl.org/dc/elements/1.1/" xmlns:cc="http://creativecommons.org/ns#" xmlns:rdf="http://www.w3.org/1999/02/22-rdf-syntax-ns#" xmlns:svg="http://www.w3.org/2000/svg" xmlns="http://www.w3.org/2000/svg" xmlns:sodipodi="http://sodipodi.sourceforge.net/DTD/sodipodi-0.dtd" xmlns:inkscape="http://www.inkscape.org/namespaces/inkscape" width="1008.6931" height="235.38269" id="svg4377" version="1.1" inkscape:version="0.48.1 " sodipodi:docname="Nouveau document 4">
  <defs id="defs4379">
    <clipPath clipPathUnits="userSpaceOnUse" id="clipPath3015">
      <path inkscape:connector-curvature="0" d="M 73.944,764.16 242.804,764.16 242.804,827.76 73.944,827.76 73.944,764.16 z" clip-rule="evenodd" id="path3017" />
    </clipPath>
    <clipPath clipPathUnits="userSpaceOnUse" id="clipPath3025">
      <path inkscape:connector-curvature="0" d="M 0,0 170.09,0 170.09,38.105 0,38.105 0,0 z" id="path3027" />
    </clipPath>
    <clipPath clipPathUnits="userSpaceOnUse" id="clipPath3107">
      <path inkscape:connector-curvature="0" d="M 73.944,764.16 242.804,764.16 242.804,827.76 73.944,827.76 73.944,764.16 z" clip-rule="evenodd" id="path3109" />
    </clipPath>
  </defs>
  <sodipodi:namedview inkscape:document-units="mm" pagecolor="#ffffff" bordercolor="#666666" borderopacity="1.0" inkscape:pageopacity="0.0" inkscape:pageshadow="2" inkscape:zoom="0.43415836" inkscape:cx="482.46516" inkscape:cy="-123.03422" inkscape:current-layer="layer1" id="namedview4381" showgrid="false" inkscape:window-width="1366" inkscape:window-height="716" inkscape:window-x="-8" inkscape:window-y="-8" inkscape:window-maximized="1" units="mm" fit-margin-top="0" fit-margin-left="0" fit-margin-right="0" fit-margin-bottom="0" />
  <metadata id="metadata4383">
    <rdf:RDF>
      <cc:Work rdf:about="">
        <dc:format>image/svg+xml</dc:format>
        <dc:type rdf:resource="http://purl.org/dc/dcmitype/StillImage" />
        <dc:title></dc:title>
      </cc:Work>
    </rdf:RDF>
  </metadata>
  <g inkscape:label="Layer 1" inkscape:groupmode="layer" id="layer1" transform="translate(-7.5348431,-5.6775757)">
    <g transform="matrix(5.8432942,0,0,-5.8432942,-416.97252,4772.6503)" id="g3011">
      <g id="g3013" clip-path="url(#clipPath3015)">
        <g id="g3019" transform="matrix(2.3333,0,0,0.54306,74.36,776.36)">
          <g id="g3021" transform="scale(0.42332,1.8895)">
            <g id="g3023" clip-path="url(#clipPath3025)">
              <path inkscape:connector-curvature="0" d="M 146.04,8.774 C 145.45,9.6844 143.68,8.1835 143.68,8.1835 144.86,10.3 144.56,15.738 144.56,15.738 143.68,15.442 142.79,15.122 141.58,14.827 141.58,14.827 141.58,14.827 141.58,14.827 141.88,17.558 141.29,19.355 140.7,20.265 138.04,19.97 134.47,17.854 132.68,16.328 130.31,13.917 131.2,10.595 132.68,8.4787 127.93,12.12 123.79,7.273 129.72,2.4502 130.31,1.835 130.91,1.5398 131.79,1.2199 129.43,0.33405 127.34,-0.28111 125.57,-0.28111 125.57,-0.28111 131.5,-0.57638 138.63,3.0407 145.74,6.9778 146.33,7.8882 146.04,8.774 z M 129.43,4.2465 C 129.43,3.9512 129.43,3.6559 129.72,3.336 127.93,5.4522 126.45,8.1835 128.84,9.0939 130.31,10.004 133.29,7.8882 133.29,7.8882 133.29,7.8882 130.91,11.505 132.38,13.917 133.88,16.648 138.04,18.149 139.81,18.149 140.11,17.854 140.4,16.328 140.7,14.237 136.84,12.711 133.88,10.3 134.47,6.9778 134.47,6.9778 128.84,8.1835 129.43,4.2465 z M 132.68,1.835 C 131.79,1.835 130.31,3.0407 130.61,4.5663 130.61,6.6579 133.59,6.6579 135.06,6.6579 135.06,8.1835 135.36,8.774 136.25,9.6844 136.84,10.595 140.11,13.326 142.79,13.326 143.38,12.711 143.09,8.1835 141.29,6.3626 139.52,4.2465 132.68,1.835 132.68,1.835 z" style="fill:#e2007a;fill-opacity:1;fill-rule:nonzero;stroke:none" id="path3029" />
              <path inkscape:connector-curvature="0" d="M 168.9,20.265 C 168.6,20.265 167.72,19.059 165.92,17.558 168.31,20.56 171.28,28.115 168.01,36.284 167.42,35.989 165.92,35.373 164.44,32.052 162.08,35.989 158.22,38.4 158.22,38.4 158.22,38.4 151.97,32.052 154.95,19.675 146.33,16.943 148.43,12.711 150.79,9.3892 151.08,9.3892 151.08,9.3892 151.08,9.0939 151.08,9.0939 148.43,13.621 150.2,15.442 150.2,15.442 150.79,16.328 153.17,17.558 154.65,18.149 155.54,18.149 155.54,18.149 155.24,23.292 154.95,29.025 158.81,34.783 159.1,34.783 164.15,31.756 165.33,23.292 165.63,18.764 161.79,14.237 159.69,13.006 157.33,11.505 154.65,10.004 151.38,8.774 150.2,8.1835 149.31,7.8882 148.13,7.273 148.13,7.273 160.88,9.3892 169.49,19.355 169.49,19.355 170.08,20.265 168.9,20.265 z M 166.54,26.318 C 166.54,28.115 165.92,29.345 165.33,30.846 165.33,30.846 165.33,30.846 165.33,30.846 166.22,32.962 167.13,33.553 167.13,33.553 167.13,33.553 171.58,22.381 162.97,15.122 162.97,15.122 162.67,15.122 162.67,14.827 164.74,16.943 167.13,20.56 166.54,26.318 z" style="fill:#e2007a;fill-opacity:1;fill-rule:nonzero;stroke:none" id="path3031" />
              <path inkscape:connector-curvature="0" d="M 125.27,24.793 C 124.68,24.793 123.18,24.793 122.59,25.703 122.29,26.614 123.47,27.819 125.27,28.115 125.27,28.115 124.09,29.64 127.04,33.872 127.34,34.168 127.93,32.347 128.22,29.935 128.54,29.64 128.54,29.345 128.54,29.025 128.54,29.025 128.54,29.345 128.54,29.64 128.22,31.461 127.63,35.669 127.04,34.783 125.57,32.667 123.79,29.64 124.98,28.115 121.41,27.524 121.41,24.793 124.09,24.793 124.38,24.793 124.38,24.793 124.38,24.793 125.27,24.793 125.27,24.793 125.27,24.793 z" style="fill:#e2007a;fill-opacity:1;fill-rule:nonzero;stroke:none" id="path3033" />
              <path inkscape:connector-curvature="0" d="M 129.72,28.434 C 129.72,28.434 129.72,28.434 129.72,28.434 130.31,28.434 130.61,28.434 130.91,28.434 133.59,28.73 135.36,28.73 135.06,28.434 133.29,25.998 130.91,25.408 130.61,25.408 130.31,25.113 129.72,25.113 129.72,25.113 129.72,25.113 129.72,24.793 129.72,24.793 129.72,24.793 129.72,24.497 129.72,24.497 129.43,23.292 128.84,22.381 127.63,22.381 126.75,22.677 126.16,23.587 126.16,24.497 125.86,22.381 127.04,22.086 127.63,22.086 129.43,21.791 130.02,22.996 129.72,25.113 131.5,24.497 135.36,27.229 135.95,28.434 136.84,29.64 130.61,28.434 129.72,28.434 z" style="fill:#e2007a;fill-opacity:1;fill-rule:nonzero;stroke:none" id="path3035" />
              <path inkscape:connector-curvature="0" d="M 3.5679,14.827 6.25,19.675 7.4311,19.675 4.1585,13.621 2.9774,13.621 -0.29528,19.675 0.91043,19.675 3.5679,14.827 z" style="fill:black;fill-opacity:1;fill-rule:nonzero;stroke:none" id="path3037" />
              <path inkscape:connector-curvature="0" d="M 9.5226,16.328 C 9.5226,16.328 9.5226,16.328 9.5226,16.328 9.5226,15.442 9.5226,15.122 10.113,14.827 10.408,14.827 10.704,14.827 11.59,14.827 15.157,14.827 15.157,14.827 15.157,14.827 15.157,13.621 15.157,13.621 15.157,13.621 10.999,13.621 10.999,13.621 10.999,13.621 10.113,13.621 9.5226,13.917 9.2028,14.237 8.6122,14.532 8.3169,15.122 8.3169,16.033 8.3169,17.239 8.3169,17.239 8.3169,17.239 8.3169,18.444 8.6122,19.059 9.2028,19.355 9.5226,19.675 10.408,19.675 10.999,19.675 12.771,19.675 12.771,19.675 12.771,19.675 13.656,19.675 14.272,19.675 14.567,19.355 15.157,19.059 15.453,18.444 15.453,17.239 15.453,16.328 15.453,16.328 15.453,16.328 L 9.5226,16.328 z M 14.272,17.558 C 14.272,18.149 14.272,18.444 13.952,18.444 13.656,18.764 13.361,18.764 12.475,18.764 11.294,18.764 11.294,18.764 11.294,18.764 10.704,18.764 10.113,18.764 9.8179,18.444 9.5226,18.444 9.5226,18.149 9.5226,17.558 L 14.272,17.558 z" style="fill:black;fill-opacity:1;fill-rule:nonzero;stroke:none" id="path3039" />
              <path inkscape:connector-curvature="0" d="M 22.564,13.621 C 22.564,17.558 22.564,17.558 22.564,17.558 22.564,17.854 22.564,18.444 21.973,18.444 21.973,18.764 21.383,18.764 20.792,18.764 21.088,18.764 20.792,18.764 20.497,18.764 19.906,18.764 19.906,18.764 19.906,18.764 19.316,18.764 18.701,18.764 18.406,18.764 18.11,18.444 17.815,18.149 17.815,17.558 17.815,13.621 17.815,13.621 17.815,13.621 16.634,13.621 16.634,13.621 16.634,13.621 16.634,17.854 16.634,17.854 16.634,17.854 16.634,18.444 16.929,19.059 17.52,19.355 18.11,19.675 18.701,19.675 19.316,19.675 21.383,19.675 21.383,19.675 21.383,19.675 21.973,19.675 22.564,19.675 23.155,19.355 23.45,19.059 23.77,18.444 23.77,17.854 23.77,13.621 23.77,13.621 23.77,13.621 L 22.564,13.621 z" style="fill:black;fill-opacity:1;fill-rule:nonzero;stroke:none" id="path3041" />
              <path inkscape:connector-curvature="0" d="M 30.29,13.621 C 27.608,13.621 27.608,13.621 27.608,13.621 26.427,13.621 25.837,13.917 25.541,14.237 25.246,14.532 25.246,15.122 25.246,15.738 25.246,22.086 25.246,22.086 25.246,22.086 26.427,22.086 26.427,22.086 26.427,22.086 26.427,19.675 26.427,19.675 26.427,19.675 29.109,19.675 29.109,19.675 29.109,19.675 29.109,18.764 29.109,18.764 29.109,18.764 26.427,18.764 26.427,18.764 26.427,18.764 26.427,16.033 26.427,16.033 26.427,16.033 26.427,15.442 26.427,15.122 26.722,14.827 26.722,14.827 27.018,14.827 27.608,14.827 30.29,14.827 30.29,14.827 30.29,14.827 L 30.29,13.621 z" style="fill:black;fill-opacity:1;fill-rule:nonzero;stroke:none" id="path3043" />
              <path inkscape:connector-curvature="0" d="M 32.653,16.328 C 32.653,16.328 32.653,16.328 32.653,16.328 32.653,15.442 32.653,15.122 33.268,14.827 33.563,14.827 33.858,14.827 34.744,14.827 38.312,14.827 38.312,14.827 38.312,14.827 38.312,13.621 38.312,13.621 38.312,13.621 34.154,13.621 34.154,13.621 34.154,13.621 33.268,13.621 32.653,13.917 32.357,14.237 31.767,14.532 31.471,15.122 31.471,16.033 31.471,17.239 31.471,17.239 31.471,17.239 31.471,18.444 31.767,19.059 32.357,19.355 32.653,19.675 33.268,19.675 34.154,19.675 35.925,19.675 35.925,19.675 35.925,19.675 36.811,19.675 37.402,19.675 37.697,19.355 38.312,19.059 38.607,18.444 38.607,17.239 38.607,16.328 38.607,16.328 38.607,16.328 L 32.653,16.328 z M 37.402,17.558 C 37.402,18.149 37.402,18.444 37.106,18.444 36.811,18.764 36.22,18.764 35.63,18.764 34.449,18.764 34.449,18.764 34.449,18.764 33.858,18.764 33.268,18.764 32.948,18.444 32.653,18.444 32.653,18.149 32.653,17.558 L 37.402,17.558 z" style="fill:black;fill-opacity:1;fill-rule:nonzero;stroke:none" id="path3045" />
              <path inkscape:connector-curvature="0" d="M 39.788,16.328 43.0606,16.328 43.0606,17.5583 39.788,17.5583 39.788,16.328 z" style="fill:black;fill-opacity:1;fill-rule:nonzero;stroke:none" id="path3047" />
              <path inkscape:connector-curvature="0" d="M 48.991,13.621 C 47.195,13.621 47.195,13.621 47.195,13.621 46.604,13.621 46.014,13.621 45.719,13.917 45.719,11.801 45.719,11.801 45.719,11.801 44.537,11.801 44.537,11.801 44.537,11.801 44.537,17.239 44.537,17.239 44.537,17.239 44.537,19.059 45.423,19.675 47.195,19.675 48.991,19.675 48.991,19.675 48.991,19.675 50.763,19.675 51.649,19.059 51.649,17.239 51.649,16.328 51.649,16.328 51.649,16.328 51.649,15.442 51.649,14.532 51.058,14.237 50.763,13.917 49.877,13.621 48.991,13.621 z M 50.763,17.239 C 50.763,17.854 50.468,18.149 50.172,18.444 50.172,18.764 49.582,18.764 48.991,18.764 47.195,18.764 47.195,18.764 47.195,18.764 46.014,18.764 45.719,18.149 45.719,17.239 45.719,16.033 45.719,16.033 45.719,16.033 45.719,15.442 45.719,15.122 46.014,14.827 46.309,14.827 46.604,14.827 47.195,14.827 48.991,14.827 48.991,14.827 48.991,14.827 49.582,14.827 49.877,14.827 50.172,14.827 50.468,15.122 50.763,15.442 50.763,16.033 L 50.763,17.239 z" style="fill:black;fill-opacity:1;fill-rule:nonzero;stroke:none" id="path3049" />
              <path inkscape:connector-curvature="0" d="M 55.807,18.764 C 55.217,18.764 54.921,18.764 54.626,18.444 54.331,18.149 54.331,17.854 54.331,17.558 54.331,13.621 54.331,13.621 54.331,13.621 53.15,13.621 53.15,13.621 53.15,13.621 53.15,17.558 53.15,17.558 53.15,17.558 53.15,18.444 53.445,18.764 53.74,19.355 54.035,19.675 54.626,19.675 55.217,19.675 59.67,19.675 59.67,19.675 59.67,19.675 59.67,18.764 59.67,18.764 59.67,18.764 L 55.807,18.764 z" style="fill:black;fill-opacity:1;fill-rule:nonzero;stroke:none" id="path3051" />
              <path inkscape:connector-curvature="0" d="M 60.851,20.88 60.851,22.086 62.057,22.086 62.057,20.88 60.851,20.88 z M 60.851,13.621 60.851,19.675 62.057,19.675 62.057,13.621 60.851,13.621 z" style="fill:black;fill-opacity:1;fill-rule:nonzero;stroke:none" id="path3053" />
              <path inkscape:connector-curvature="0" d="M 66.806,14.827 69.464,19.675 70.645,19.675 67.397,13.621 66.191,13.621 62.648,19.675 64.124,19.675 66.806,14.827 z" style="fill:black;fill-opacity:1;fill-rule:nonzero;stroke:none" id="path3055" />
              <path inkscape:connector-curvature="0" d="M 72.441,16.328 C 72.441,16.328 72.441,16.328 72.441,16.328 72.441,15.442 72.736,15.122 73.032,14.827 73.327,14.827 73.917,14.827 74.803,14.827 78.076,14.827 78.076,14.827 78.076,14.827 78.076,13.621 78.076,13.621 78.076,13.621 74.213,13.621 74.213,13.621 74.213,13.621 73.327,13.621 72.736,13.917 72.441,14.237 71.555,14.532 71.26,15.122 71.26,16.033 71.26,17.239 71.26,17.239 71.26,17.239 71.26,18.444 71.555,19.059 72.441,19.355 72.736,19.675 73.327,19.675 74.213,19.675 75.689,19.675 75.689,19.675 75.689,19.675 76.599,19.675 77.485,19.675 77.781,19.355 78.371,19.059 78.666,18.444 78.666,17.239 78.666,16.328 78.666,16.328 78.666,16.328 L 72.441,16.328 z M 77.485,17.558 C 77.485,18.149 77.19,18.444 76.895,18.444 76.895,18.764 76.304,18.764 75.689,18.764 74.213,18.764 74.213,18.764 74.213,18.764 73.622,18.764 73.327,18.764 73.032,18.444 72.736,18.444 72.736,18.149 72.441,17.558 L 77.485,17.558 z" style="fill:black;fill-opacity:1;fill-rule:nonzero;stroke:none" id="path3057" />
              <path inkscape:connector-curvature="0" d="M 80.758,16.328 C 80.758,16.328 80.758,16.328 80.758,16.328 80.758,15.442 81.053,15.122 81.348,14.827 81.644,14.827 82.234,14.827 82.825,14.827 86.393,14.827 86.393,14.827 86.393,14.827 86.393,13.621 86.393,13.621 86.393,13.621 82.234,13.621 82.234,13.621 82.234,13.621 81.644,13.621 81.053,13.917 80.438,14.237 79.847,14.532 79.552,15.122 79.552,16.033 79.552,17.239 79.552,17.239 79.552,17.239 79.552,18.444 79.847,19.059 80.438,19.355 81.053,19.675 81.644,19.675 82.53,19.675 84.006,19.675 84.006,19.675 84.006,19.675 84.892,19.675 85.507,19.675 86.097,19.355 86.393,19.059 86.688,18.444 86.688,17.239 86.688,16.328 86.688,16.328 86.688,16.328 L 80.758,16.328 z M 85.507,17.558 C 85.507,18.149 85.507,18.444 85.187,18.444 84.892,18.764 84.596,18.764 84.006,18.764 82.53,18.764 82.53,18.764 82.53,18.764 81.939,18.764 81.348,18.764 81.348,18.444 81.053,18.444 80.758,18.149 80.758,17.558 L 85.507,17.558 z" style="fill:black;fill-opacity:1;fill-rule:nonzero;stroke:none" id="path3059" />
              <path inkscape:connector-curvature="0" d="M 89.05,13.621 90.551,13.621 90.551,15.122 89.05,15.122 89.05,13.621 z" style="fill:black;fill-opacity:1;fill-rule:nonzero;stroke:none" id="path3061" />
              <path inkscape:connector-curvature="0" d="M 95.005,13.621 C 93.209,13.621 92.323,14.532 92.323,16.033 92.323,17.239 92.323,17.239 92.323,17.239 92.323,18.444 92.618,19.059 93.209,19.355 93.799,19.675 94.39,19.675 95.3,19.675 99.139,19.675 99.139,19.675 99.139,19.675 99.139,18.764 99.139,18.764 99.139,18.764 95.3,18.764 95.3,18.764 95.3,18.764 94.685,18.764 94.39,18.764 94.095,18.444 93.799,18.444 93.504,17.854 93.504,17.239 93.504,16.033 93.504,16.033 93.504,16.033 93.504,15.442 93.799,15.122 94.095,14.827 94.39,14.827 94.685,14.827 95.3,14.827 99.139,14.827 99.139,14.827 99.139,14.827 99.139,13.621 99.139,13.621 99.139,13.621 L 95.005,13.621 z" style="fill:black;fill-opacity:1;fill-rule:nonzero;stroke:none" id="path3063" />
              <path inkscape:connector-curvature="0" d="M 104.8,13.621 C 103.3,13.621 103.3,13.621 103.3,13.621 102.41,13.621 101.53,13.917 101.23,14.237 100.64,14.532 100.05,15.122 100.05,16.033 100.05,17.239 100.05,17.239 100.05,17.239 100.05,18.149 100.64,19.059 101.23,19.355 101.53,19.675 102.41,19.675 103.3,19.675 104.8,19.675 104.8,19.675 104.8,19.675 105.68,19.675 106.57,19.675 106.87,19.355 107.75,19.059 108.05,18.149 108.05,17.239 108.05,16.033 108.05,16.033 108.05,16.033 108.05,15.122 107.75,14.532 106.87,14.237 106.57,13.917 105.68,13.621 104.8,13.621 z M 106.87,17.239 C 106.87,17.854 106.57,18.149 106.27,18.444 105.98,18.764 105.68,18.764 105.09,18.764 103,18.764 103,18.764 103,18.764 102.41,18.764 102.12,18.764 101.82,18.444 101.53,18.149 101.23,17.854 101.23,17.239 101.23,16.033 101.23,16.033 101.23,16.033 101.23,15.738 101.53,15.122 101.82,14.827 102.12,14.827 102.41,14.827 103,14.827 105.09,14.827 105.09,14.827 105.09,14.827 105.68,14.827 105.98,14.827 106.27,14.827 106.57,15.122 106.87,15.738 106.87,16.033 L 106.87,17.239 z" style="fill:black;fill-opacity:1;fill-rule:nonzero;stroke:none" id="path3065" />
              <path inkscape:connector-curvature="0" d="M 120.23,13.621 C 120.23,17.558 120.23,17.558 120.23,17.558 120.23,18.149 119.93,18.444 119.64,18.444 119.34,18.764 119.05,18.764 118.43,18.764 117.84,18.764 117.84,18.764 117.84,18.764 116.66,18.764 116.07,18.149 116.07,17.239 116.07,13.621 116.07,13.621 116.07,13.621 114.89,13.621 114.89,13.621 114.89,13.621 114.89,17.239 114.89,17.239 114.89,17.239 114.89,17.854 114.59,18.149 114.3,18.444 113.98,18.764 113.68,18.764 113.09,18.764 112.8,18.764 112.8,18.764 112.5,18.764 112.5,18.764 112.2,18.764 112.2,18.764 111.02,18.764 110.43,18.444 110.43,17.558 110.43,13.621 110.43,13.621 110.43,13.621 109.23,13.621 109.23,13.621 109.23,13.621 109.23,17.558 109.23,17.558 109.23,17.558 109.23,18.149 109.55,18.764 110.14,19.355 110.43,19.675 111.02,19.675 111.61,19.675 113.68,19.675 113.68,19.675 113.68,19.675 114.59,19.675 115.18,19.355 115.48,18.764 115.77,19.355 116.66,19.675 117.84,19.675 118.43,19.675 118.43,19.675 118.43,19.675 118.43,19.675 118.43,19.675 118.43,19.675 118.73,19.675 118.73,19.675 118.73,19.675 119.64,19.675 120.23,19.675 120.52,19.355 121.11,19.059 121.41,18.444 121.41,17.558 121.41,13.621 121.41,13.621 121.41,13.621 L 120.23,13.621 z" style="fill:black;fill-opacity:1;fill-rule:nonzero;stroke:none" id="path3067" />
              <path inkscape:connector-curvature="0" d="M 14.272,1.2199 C 50.172,-0.28111 78.371,2.1303 98.844,7.8882 102.12,9.0939 105.98,9.6844 110.43,10.595 111.02,10.595 111.91,10.89 112.8,10.89 96.777,10.3 83.711,7.5683 70.94,5.772 56.102,3.336 38.607,1.2199 14.272,1.2199 z" style="fill:#e2007a;fill-opacity:1;fill-rule:nonzero;stroke:none" id="path3069" />
              <path inkscape:connector-curvature="0" d="M 3.5679,14.827 6.25,19.675 7.4311,19.675 4.1585,13.621 2.9774,13.621 -0.29528,19.675 0.91043,19.675 3.5679,14.827 z" style="fill:black;fill-opacity:1;fill-rule:nonzero;stroke:none" id="path3071" />
              <path inkscape:connector-curvature="0" d="M 9.5226,16.328 C 9.5226,16.328 9.5226,16.328 9.5226,16.328 9.5226,15.442 9.5226,15.122 10.113,14.827 10.408,14.827 10.704,14.827 11.59,14.827 15.157,14.827 15.157,14.827 15.157,14.827 15.157,13.621 15.157,13.621 15.157,13.621 10.999,13.621 10.999,13.621 10.999,13.621 10.113,13.621 9.5226,13.917 9.2028,14.237 8.6122,14.532 8.3169,15.122 8.3169,16.033 8.3169,17.239 8.3169,17.239 8.3169,17.239 8.3169,18.444 8.6122,19.059 9.2028,19.355 9.5226,19.675 10.408,19.675 10.999,19.675 12.771,19.675 12.771,19.675 12.771,19.675 13.656,19.675 14.272,19.675 14.567,19.355 15.157,19.059 15.453,18.444 15.453,17.239 15.453,16.328 15.453,16.328 15.453,16.328 L 9.5226,16.328 z M 14.272,17.558 C 14.272,18.149 14.272,18.444 13.952,18.444 13.656,18.764 13.361,18.764 12.475,18.764 11.294,18.764 11.294,18.764 11.294,18.764 10.704,18.764 10.113,18.764 9.8179,18.444 9.5226,18.444 9.5226,18.149 9.5226,17.558 L 14.272,17.558 z" style="fill:black;fill-opacity:1;fill-rule:nonzero;stroke:none" id="path3073" />
              <path inkscape:connector-curvature="0" d="M 22.564,13.621 C 22.564,17.558 22.564,17.558 22.564,17.558 22.564,17.854 22.564,18.444 21.973,18.444 21.973,18.764 21.383,18.764 20.792,18.764 21.088,18.764 20.792,18.764 20.497,18.764 19.906,18.764 19.906,18.764 19.906,18.764 19.316,18.764 18.701,18.764 18.406,18.764 18.11,18.444 17.815,18.149 17.815,17.558 17.815,13.621 17.815,13.621 17.815,13.621 16.634,13.621 16.634,13.621 16.634,13.621 16.634,17.854 16.634,17.854 16.634,17.854 16.634,18.444 16.929,19.059 17.52,19.355 18.11,19.675 18.701,19.675 19.316,19.675 21.383,19.675 21.383,19.675 21.383,19.675 21.973,19.675 22.564,19.675 23.155,19.355 23.45,19.059 23.77,18.444 23.77,17.854 23.77,13.621 23.77,13.621 23.77,13.621 L 22.564,13.621 z" style="fill:black;fill-opacity:1;fill-rule:nonzero;stroke:none" id="path3075" />
              <path inkscape:connector-curvature="0" d="M 30.29,13.621 C 27.608,13.621 27.608,13.621 27.608,13.621 26.427,13.621 25.837,13.917 25.541,14.237 25.246,14.532 25.246,15.122 25.246,15.738 25.246,22.086 25.246,22.086 25.246,22.086 26.427,22.086 26.427,22.086 26.427,22.086 26.427,19.675 26.427,19.675 26.427,19.675 29.109,19.675 29.109,19.675 29.109,19.675 29.109,18.764 29.109,18.764 29.109,18.764 26.427,18.764 26.427,18.764 26.427,18.764 26.427,16.033 26.427,16.033 26.427,16.033 26.427,15.442 26.427,15.122 26.722,14.827 26.722,14.827 27.018,14.827 27.608,14.827 30.29,14.827 30.29,14.827 30.29,14.827 L 30.29,13.621 z" style="fill:black;fill-opacity:1;fill-rule:nonzero;stroke:none" id="path3077" />
              <path inkscape:connector-curvature="0" d="M 32.653,16.328 C 32.653,16.328 32.653,16.328 32.653,16.328 32.653,15.442 32.653,15.122 33.268,14.827 33.563,14.827 33.858,14.827 34.744,14.827 38.312,14.827 38.312,14.827 38.312,14.827 38.312,13.621 38.312,13.621 38.312,13.621 34.154,13.621 34.154,13.621 34.154,13.621 33.268,13.621 32.653,13.917 32.357,14.237 31.767,14.532 31.471,15.122 31.471,16.033 31.471,17.239 31.471,17.239 31.471,17.239 31.471,18.444 31.767,19.059 32.357,19.355 32.653,19.675 33.268,19.675 34.154,19.675 35.925,19.675 35.925,19.675 35.925,19.675 36.811,19.675 37.402,19.675 37.697,19.355 38.312,19.059 38.607,18.444 38.607,17.239 38.607,16.328 38.607,16.328 38.607,16.328 L 32.653,16.328 z M 37.402,17.558 C 37.402,18.149 37.402,18.444 37.106,18.444 36.811,18.764 36.22,18.764 35.63,18.764 34.449,18.764 34.449,18.764 34.449,18.764 33.858,18.764 33.268,18.764 32.948,18.444 32.653,18.444 32.653,18.149 32.653,17.558 L 37.402,17.558 z" style="fill:black;fill-opacity:1;fill-rule:nonzero;stroke:none" id="path3079" />
              <path inkscape:connector-curvature="0" d="M 39.788,16.328 43.0606,16.328 43.0606,17.5583 39.788,17.5583 39.788,16.328 z" style="fill:black;fill-opacity:1;fill-rule:nonzero;stroke:none" id="path3081" />
              <path inkscape:connector-curvature="0" d="M 48.991,13.621 C 47.195,13.621 47.195,13.621 47.195,13.621 46.604,13.621 46.014,13.621 45.719,13.917 45.719,11.801 45.719,11.801 45.719,11.801 44.537,11.801 44.537,11.801 44.537,11.801 44.537,17.239 44.537,17.239 44.537,17.239 44.537,19.059 45.423,19.675 47.195,19.675 48.991,19.675 48.991,19.675 48.991,19.675 50.763,19.675 51.649,19.059 51.649,17.239 51.649,16.328 51.649,16.328 51.649,16.328 51.649,15.442 51.649,14.532 51.058,14.237 50.763,13.917 49.877,13.621 48.991,13.621 z M 50.763,17.239 C 50.763,17.854 50.468,18.149 50.172,18.444 50.172,18.764 49.582,18.764 48.991,18.764 47.195,18.764 47.195,18.764 47.195,18.764 46.014,18.764 45.719,18.149 45.719,17.239 45.719,16.033 45.719,16.033 45.719,16.033 45.719,15.442 45.719,15.122 46.014,14.827 46.309,14.827 46.604,14.827 47.195,14.827 48.991,14.827 48.991,14.827 48.991,14.827 49.582,14.827 49.877,14.827 50.172,14.827 50.468,15.122 50.763,15.442 50.763,16.033 L 50.763,17.239 z" style="fill:black;fill-opacity:1;fill-rule:nonzero;stroke:none" id="path3083" />
              <path inkscape:connector-curvature="0" d="M 55.807,18.764 C 55.217,18.764 54.921,18.764 54.626,18.444 54.331,18.149 54.331,17.854 54.331,17.558 54.331,13.621 54.331,13.621 54.331,13.621 53.15,13.621 53.15,13.621 53.15,13.621 53.15,17.558 53.15,17.558 53.15,17.558 53.15,18.444 53.445,18.764 53.74,19.355 54.035,19.675 54.626,19.675 55.217,19.675 59.67,19.675 59.67,19.675 59.67,19.675 59.67,18.764 59.67,18.764 59.67,18.764 L 55.807,18.764 z" style="fill:black;fill-opacity:1;fill-rule:nonzero;stroke:none" id="path3085" />
              <path inkscape:connector-curvature="0" d="M 60.851,20.88 60.851,22.086 62.057,22.086 62.057,20.88 60.851,20.88 z M 60.851,13.621 60.851,19.675 62.057,19.675 62.057,13.621 60.851,13.621 z" style="fill:black;fill-opacity:1;fill-rule:nonzero;stroke:none" id="path3087" />
              <path inkscape:connector-curvature="0" d="M 66.806,14.827 69.464,19.675 70.645,19.675 67.397,13.621 66.191,13.621 62.648,19.675 64.124,19.675 66.806,14.827 z" style="fill:black;fill-opacity:1;fill-rule:nonzero;stroke:none" id="path3089" />
              <path inkscape:connector-curvature="0" d="M 72.441,16.328 C 72.441,16.328 72.441,16.328 72.441,16.328 72.441,15.442 72.736,15.122 73.032,14.827 73.327,14.827 73.917,14.827 74.803,14.827 78.076,14.827 78.076,14.827 78.076,14.827 78.076,13.621 78.076,13.621 78.076,13.621 74.213,13.621 74.213,13.621 74.213,13.621 73.327,13.621 72.736,13.917 72.441,14.237 71.555,14.532 71.26,15.122 71.26,16.033 71.26,17.239 71.26,17.239 71.26,17.239 71.26,18.444 71.555,19.059 72.441,19.355 72.736,19.675 73.327,19.675 74.213,19.675 75.689,19.675 75.689,19.675 75.689,19.675 76.599,19.675 77.485,19.675 77.781,19.355 78.371,19.059 78.666,18.444 78.666,17.239 78.666,16.328 78.666,16.328 78.666,16.328 L 72.441,16.328 z M 77.485,17.558 C 77.485,18.149 77.19,18.444 76.895,18.444 76.895,18.764 76.304,18.764 75.689,18.764 74.213,18.764 74.213,18.764 74.213,18.764 73.622,18.764 73.327,18.764 73.032,18.444 72.736,18.444 72.736,18.149 72.441,17.558 L 77.485,17.558 z" style="fill:black;fill-opacity:1;fill-rule:nonzero;stroke:none" id="path3091" />
              <path inkscape:connector-curvature="0" d="M 80.758,16.328 C 80.758,16.328 80.758,16.328 80.758,16.328 80.758,15.442 81.053,15.122 81.348,14.827 81.644,14.827 82.234,14.827 82.825,14.827 86.393,14.827 86.393,14.827 86.393,14.827 86.393,13.621 86.393,13.621 86.393,13.621 82.234,13.621 82.234,13.621 82.234,13.621 81.644,13.621 81.053,13.917 80.438,14.237 79.847,14.532 79.552,15.122 79.552,16.033 79.552,17.239 79.552,17.239 79.552,17.239 79.552,18.444 79.847,19.059 80.438,19.355 81.053,19.675 81.644,19.675 82.53,19.675 84.006,19.675 84.006,19.675 84.006,19.675 84.892,19.675 85.507,19.675 86.097,19.355 86.393,19.059 86.688,18.444 86.688,17.239 86.688,16.328 86.688,16.328 86.688,16.328 L 80.758,16.328 z M 85.507,17.558 C 85.507,18.149 85.507,18.444 85.187,18.444 84.892,18.764 84.596,18.764 84.006,18.764 82.53,18.764 82.53,18.764 82.53,18.764 81.939,18.764 81.348,18.764 81.348,18.444 81.053,18.444 80.758,18.149 80.758,17.558 L 85.507,17.558 z" style="fill:black;fill-opacity:1;fill-rule:nonzero;stroke:none" id="path3093" />
              <path inkscape:connector-curvature="0" d="M 89.05,13.621 90.551,13.621 90.551,15.122 89.05,15.122 89.05,13.621 z" style="fill:black;fill-opacity:1;fill-rule:nonzero;stroke:none" id="path3095" />
              <path inkscape:connector-curvature="0" d="M 95.005,13.621 C 93.209,13.621 92.323,14.532 92.323,16.033 92.323,17.239 92.323,17.239 92.323,17.239 92.323,18.444 92.618,19.059 93.209,19.355 93.799,19.675 94.39,19.675 95.3,19.675 99.139,19.675 99.139,19.675 99.139,19.675 99.139,18.764 99.139,18.764 99.139,18.764 95.3,18.764 95.3,18.764 95.3,18.764 94.685,18.764 94.39,18.764 94.095,18.444 93.799,18.444 93.504,17.854 93.504,17.239 93.504,16.033 93.504,16.033 93.504,16.033 93.504,15.442 93.799,15.122 94.095,14.827 94.39,14.827 94.685,14.827 95.3,14.827 99.139,14.827 99.139,14.827 99.139,14.827 99.139,13.621 99.139,13.621 99.139,13.621 L 95.005,13.621 z" style="fill:black;fill-opacity:1;fill-rule:nonzero;stroke:none" id="path3097" />
              <path inkscape:connector-curvature="0" d="M 104.8,13.621 C 103.3,13.621 103.3,13.621 103.3,13.621 102.41,13.621 101.53,13.917 101.23,14.237 100.64,14.532 100.05,15.122 100.05,16.033 100.05,17.239 100.05,17.239 100.05,17.239 100.05,18.149 100.64,19.059 101.23,19.355 101.53,19.675 102.41,19.675 103.3,19.675 104.8,19.675 104.8,19.675 104.8,19.675 105.68,19.675 106.57,19.675 106.87,19.355 107.75,19.059 108.05,18.149 108.05,17.239 108.05,16.033 108.05,16.033 108.05,16.033 108.05,15.122 107.75,14.532 106.87,14.237 106.57,13.917 105.68,13.621 104.8,13.621 z M 106.87,17.239 C 106.87,17.854 106.57,18.149 106.27,18.444 105.98,18.764 105.68,18.764 105.09,18.764 103,18.764 103,18.764 103,18.764 102.41,18.764 102.12,18.764 101.82,18.444 101.53,18.149 101.23,17.854 101.23,17.239 101.23,16.033 101.23,16.033 101.23,16.033 101.23,15.738 101.53,15.122 101.82,14.827 102.12,14.827 102.41,14.827 103,14.827 105.09,14.827 105.09,14.827 105.09,14.827 105.68,14.827 105.98,14.827 106.27,14.827 106.57,15.122 106.87,15.738 106.87,16.033 L 106.87,17.239 z" style="fill:black;fill-opacity:1;fill-rule:nonzero;stroke:none" id="path3099" />
              <path inkscape:connector-curvature="0" d="M 120.23,13.621 C 120.23,17.558 120.23,17.558 120.23,17.558 120.23,18.149 119.93,18.444 119.64,18.444 119.34,18.764 119.05,18.764 118.43,18.764 117.84,18.764 117.84,18.764 117.84,18.764 116.66,18.764 116.07,18.149 116.07,17.239 116.07,13.621 116.07,13.621 116.07,13.621 114.89,13.621 114.89,13.621 114.89,13.621 114.89,17.239 114.89,17.239 114.89,17.239 114.89,17.854 114.59,18.149 114.3,18.444 113.98,18.764 113.68,18.764 113.09,18.764 112.8,18.764 112.8,18.764 112.5,18.764 112.5,18.764 112.2,18.764 112.2,18.764 111.02,18.764 110.43,18.444 110.43,17.558 110.43,13.621 110.43,13.621 110.43,13.621 109.23,13.621 109.23,13.621 109.23,13.621 109.23,17.558 109.23,17.558 109.23,17.558 109.23,18.149 109.55,18.764 110.14,19.355 110.43,19.675 111.02,19.675 111.61,19.675 113.68,19.675 113.68,19.675 113.68,19.675 114.59,19.675 115.18,19.355 115.48,18.764 115.77,19.355 116.66,19.675 117.84,19.675 118.43,19.675 118.43,19.675 118.43,19.675 118.43,19.675 118.43,19.675 118.43,19.675 118.73,19.675 118.73,19.675 118.73,19.675 119.64,19.675 120.23,19.675 120.52,19.355 121.11,19.059 121.41,18.444 121.41,17.558 121.41,13.621 121.41,13.621 121.41,13.621 L 120.23,13.621 z" style="fill:black;fill-opacity:1;fill-rule:nonzero;stroke:none" id="path3101" />
            </g>
          </g>
        </g>
        <g id="g3103">
          <g id="g3105" clip-path="url(#clipPath3107)" />
        </g>
      </g>
    </g>
  </g>
</svg>
