<?xml version="1.0" encoding="utf-8"?>
<!-- Generator: Adobe Illustrator 16.0.0, SVG Export Plug-In . SVG Version: 6.00 Build 0)  -->
<!DOCTYPE svg PUBLIC "-//W3C//DTD SVG 1.1//EN" "http://www.w3.org/Graphics/SVG/1.1/DTD/svg11.dtd">
<svg version="1.1" id="Layer_1" xmlns="http://www.w3.org/2000/svg" xmlns:xlink="http://www.w3.org/1999/xlink" x="0px" y="0px"
	 width="300px" height="150px" viewBox="0 0 300 150" enable-background="new 0 0 300 150" xml:space="preserve">
<g>
	<path fill="#2C314F" d="M182.438,13.238c4.522,0,8.188,3.666,8.188,8.188c0,4.523-3.665,8.188-8.188,8.188h-3.705
		c-0.234,0-0.389,0.156-0.389,0.39v9.748c0,0.429-0.351,0.78-0.781,0.78h-2.144c-0.429,0-0.78-0.351-0.78-0.78V14.018
		c0-0.428,0.352-0.78,0.78-0.78H182.438z M178.732,16.942c-0.234,0-0.389,0.156-0.389,0.39v8.188c0,0.234,0.154,0.391,0.389,0.391
		h3.705c2.455,0,4.483-2.027,4.483-4.484c0-2.457-2.028-4.484-4.483-4.484H178.732z"/>
	<path fill="#2C314F" d="M195.071,26.221c0,0.664-0.547,0.664-0.897,0.664h-1.753c-0.586,0-0.781-0.312-0.781-0.78
		c0-3.626,3.744-5.458,7.058-5.458c4.405,0,7.135,1.91,7.135,6.238v12.866c0,0.429-0.352,0.78-0.78,0.78h-1.326
		c-0.232,0-0.389-0.078-0.545-0.273c-0.234-0.312-0.39-0.819-0.779-0.819c-0.703,0-1.677,1.481-4.562,1.481
		c-4.796,0-7.097-2.924-7.097-6.239c0-3.236,2.339-5.926,6.433-5.926h4.757c0.234,0,0.391-0.156,0.391-0.39v-1.481
		c0-2.106-1.442-3.12-3.626-3.12C197.333,23.765,195.071,24.351,195.071,26.221z M197.176,31.953c-1.988,0-2.924,1.053-2.924,2.69
		c0,1.911,1.209,3.041,3.47,3.041c3.587,0,4.913-1.443,4.913-4.094v-1.248c0-0.234-0.155-0.39-0.39-0.39H197.176z"/>
	<path fill="#2C314F" d="M219.752,24.506c-3.08,0-5.848,1.599-5.848,5.888v9.357c0,0.429-0.351,0.78-0.779,0.78h-1.95
		c-0.43,0-0.779-0.351-0.779-0.78V21.816c0-0.429,0.35-0.78,0.779-0.78h1.325c0.43,0,0.663,0.234,0.78,0.78
		c0.116,0.507,0.116,1.365,0.701,1.365c0.936,0,1.599-2.145,5.771-2.145h0.78c0.429,0,0.779,0.351,0.779,0.78v1.911
		c0,0.429-0.351,0.779-0.779,0.779H219.752z"/>
	<path fill="#2C314F" d="M227.939,16.279c0,0.352-0.273,0.625-0.623,0.625h-2.651c-0.35,0-0.624-0.273-0.624-0.625v-2.689
		c0-0.312,0.274-0.625,0.624-0.625h2.651c0.35,0,0.623,0.312,0.623,0.625V16.279z M227.823,39.751c0,0.429-0.352,0.78-0.78,0.78
		h-2.027c-0.429,0-0.779-0.351-0.779-0.78V21.816c0-0.429,0.351-0.78,0.779-0.78h2.027c0.429,0,0.78,0.351,0.78,0.78V39.751z"/>
	<path fill="#2C314F" d="M245.798,27.274h-1.95c-0.428,0-0.779-0.351-0.779-0.78c0-1.364-1.053-2.535-3.626-2.535
		c-2.417,0-3.431,1.209-3.431,2.34c0,1.52,1.52,2.027,3.431,2.378c3.275,0.585,7.681,1.248,7.681,6.004
		c0,4.173-3.625,6.239-7.681,6.239c-3.898,0-7.72-1.949-7.72-6.239v-0.507c0-0.429,0.352-0.779,0.779-0.779h1.95
		c0.429,0,0.779,0.35,0.779,0.779v0.507c0,2.34,2.418,2.886,4.211,2.886c2.106,0,4.172-0.545,4.172-2.886
		c0-1.598-1.91-2.027-4.172-2.495c-3.197-0.663-7.058-1.482-7.058-5.887c0-3.509,3.51-5.653,7.058-5.653
		c3.626,0,7.135,2.144,7.135,5.848C246.577,26.924,246.227,27.274,245.798,27.274z"/>
	<path fill="#2C314F" d="M191.717,75.776c0,4.328-3.625,8.109-8.773,8.109c-4.678,0-8.147-3.08-8.771-8.109
		c-0.391-3.159-0.391-8.578,0-11.697c0.507-4.25,3.625-8.11,8.771-8.11c4.68,0,8.773,3.042,8.773,8.11v0.545
		c0,0.429-0.352,0.78-0.779,0.78h-2.146c-0.428,0-0.778-0.351-0.778-0.78v-0.545c0-2.34-1.989-4.368-5.069-4.406
		c-2.533,0-4.718,1.56-5.067,4.406c-0.392,3.197-0.392,8.499,0,11.697c0.312,2.261,2.027,4.406,5.067,4.406
		c2.613,0,5.069-1.561,5.069-4.406v-0.547c0-0.428,0.351-0.779,0.778-0.779h2.146c0.428,0,0.779,0.351,0.779,0.779V75.776z"/>
	<path fill="#2C314F" d="M199.32,82.794c0,0.428-0.351,0.778-0.78,0.778h-1.949c-0.429,0-0.778-0.351-0.778-0.778V56.787
		c0-0.428,0.35-0.779,0.778-0.779h1.949c0.43,0,0.78,0.351,0.78,0.779V82.794z"/>
	<path fill="#2C314F" d="M203.609,71.097c0.312-4.094,3.313-7.408,7.993-7.408c4.678,0,7.681,3.314,7.992,7.408
		c0.117,1.56,0.117,3.899,0,5.458c-0.312,4.095-3.314,7.408-7.992,7.408c-4.68,0-7.681-3.313-7.993-7.408
		C203.493,74.996,203.493,72.657,203.609,71.097z M207.118,76.555c0.157,2.066,1.794,3.899,4.484,3.899s4.327-1.833,4.483-3.899
		c0.117-1.598,0.117-3.859,0-5.458c-0.156-2.066-1.793-3.899-4.483-3.899s-4.327,1.833-4.484,3.899
		C207.001,72.696,207.001,74.957,207.118,76.555z"/>
	<path fill="#2C314F" d="M224.743,64.858c0-0.429,0.351-0.779,0.779-0.779h2.066c0.429,0,0.78,0.35,0.78,0.779v19.885
		c0,3.782-3.003,7.018-7.136,7.018h-2.027c-0.429,0-0.779-0.351-0.779-0.779v-1.949c0-0.43,0.351-0.78,0.779-0.78h2.027
		c1.95,0,3.51-1.404,3.51-3.509V64.858z M228.524,59.322c0,0.351-0.273,0.624-0.623,0.624h-2.651c-0.352,0-0.624-0.273-0.624-0.624
		v-2.69c0-0.312,0.272-0.624,0.624-0.624h2.651c0.35,0,0.623,0.312,0.623,0.624V59.322z"/>
	<path fill="#2C314F" d="M233.203,64.858c0-0.429,0.352-0.779,0.78-0.779h1.949c0.429,0,0.78,0.35,0.78,0.779v11.696
		c0,2.262,1.599,3.899,4.288,3.899c2.418,0,4.289-1.442,4.289-3.704V64.858c0-0.429,0.352-0.779,0.78-0.779h1.949
		c0.429,0,0.78,0.35,0.78,0.779v17.936c0,0.428-0.352,0.778-0.78,0.778h-1.715c-0.234,0-0.392-0.116-0.546-0.271
		c-0.234-0.273-0.585-0.623-0.976-0.623c-1.13,0-1.286,1.285-4.171,1.285c-4.406,0-7.409-3.119-7.409-7.408V64.858z"/>
	<path fill="#2C314F" d="M262.837,67.548c-3.08,0-5.848,1.599-5.848,5.888v9.357c0,0.428-0.351,0.778-0.78,0.778h-1.95
		c-0.429,0-0.779-0.351-0.779-0.778V64.858c0-0.429,0.351-0.779,0.779-0.779h1.325c0.43,0,0.664,0.233,0.78,0.779
		c0.118,0.507,0.118,1.365,0.703,1.365c0.936,0,1.598-2.144,5.77-2.144h0.78c0.428,0,0.778,0.35,0.778,0.779v1.911
		c0,0.429-0.351,0.779-0.778,0.779H262.837z"/>
	<path fill="#2C314F" d="M269.154,74.957c-0.235,0-0.391,0.155-0.391,0.39c0,3.548,1.833,5.107,4.523,5.107
		c2.027,0,3.548-1.013,4.015-2.456c0.156-0.508,0.547-0.663,0.897-0.663h1.988c0.39,0,0.74,0.235,0.664,0.78
		c-0.469,3.392-3.51,5.848-7.564,5.848c-4.68,0-7.682-3.313-7.993-7.408c-0.117-1.559-0.117-3.898,0-5.458
		c0.312-4.094,3.313-7.408,7.993-7.408c4.718,0,7.797,2.924,7.797,7.797v2.691c0,0.428-0.351,0.78-0.779,0.78H269.154z
		 M268.842,71.448c0,0.233,0.155,0.39,0.39,0.39h8.11c0.234,0,0.39-0.156,0.39-0.39c0-2.691-1.988-4.25-4.406-4.25
		C270.635,67.198,268.842,69.069,268.842,71.448z"/>
	<path fill="#2C314F" d="M185.596,119.247c0.078,0.234,0.312,0.234,0.389,0l5.381-19.261c0.117-0.468,0.391-0.663,0.819-0.663h3.978
		c0.428,0,0.779,0.351,0.779,0.78v25.732c0,0.43-0.352,0.78-0.779,0.78h-2.067c-0.429,0-0.779-0.351-0.779-0.78v-19.495
		c0-0.233-0.272-0.233-0.312-0.077l-5.575,19.689c-0.154,0.468-0.39,0.663-0.818,0.663h-1.639c-0.428,0-0.662-0.195-0.817-0.663
		l-5.576-19.689c-0.039-0.156-0.312-0.156-0.312,0.077v19.495c0,0.43-0.351,0.78-0.781,0.78h-2.065c-0.429,0-0.78-0.351-0.78-0.78
		v-25.732c0-0.43,0.352-0.78,0.78-0.78h3.978c0.429,0,0.701,0.195,0.818,0.663L185.596,119.247z"/>
	<path fill="#2C314F" d="M205.092,117.999c-0.234,0-0.391,0.157-0.391,0.391c0,3.548,1.833,5.107,4.523,5.107
		c2.027,0,3.548-1.014,4.016-2.456c0.155-0.508,0.547-0.664,0.896-0.664h1.988c0.391,0,0.741,0.235,0.663,0.781
		c-0.467,3.392-3.509,5.848-7.563,5.848c-4.679,0-7.681-3.313-7.992-7.407c-0.118-1.561-0.118-3.899,0-5.46
		c0.312-4.093,3.313-7.407,7.992-7.407c4.719,0,7.798,2.924,7.798,7.798v2.69c0,0.429-0.352,0.779-0.779,0.779H205.092z
		 M204.779,114.491c0,0.232,0.156,0.39,0.391,0.39h8.109c0.234,0,0.39-0.157,0.39-0.39c0-2.69-1.988-4.251-4.405-4.251
		C206.573,110.24,204.779,112.112,204.779,114.491z"/>
	<path fill="#2C314F" d="M224.274,117.999c-0.234,0-0.391,0.157-0.391,0.391c0,3.548,1.833,5.107,4.524,5.107
		c2.026,0,3.548-1.014,4.017-2.456c0.154-0.508,0.545-0.664,0.895-0.664h1.99c0.39,0,0.74,0.235,0.662,0.781
		c-0.468,3.392-3.509,5.848-7.563,5.848c-4.679,0-7.681-3.313-7.993-7.407c-0.118-1.561-0.118-3.899,0-5.46
		c0.312-4.093,3.314-7.407,7.993-7.407c4.718,0,7.798,2.924,7.798,7.798v2.69c0,0.429-0.352,0.779-0.78,0.779H224.274z
		 M223.963,114.491c0,0.232,0.156,0.39,0.39,0.39h8.11c0.233,0,0.39-0.157,0.39-0.39c0-2.69-1.989-4.251-4.406-4.251
		C225.758,110.24,223.963,112.112,223.963,114.491z"/>
	<path fill="#2C314F" d="M249.386,107.316c0.429,0,0.78,0.351,0.78,0.78v1.949c0,0.429-0.352,0.779-0.78,0.779H244.9
		c-0.232,0-0.389,0.156-0.389,0.391v9.161c0,1.717,0.741,2.848,3.119,2.848h2.144c0.43,0,0.779,0.35,0.779,0.779v1.832
		c0,0.43-0.35,0.78-0.779,0.78h-2.144c-4.056,0-6.629-1.755-6.629-6.239v-9.161c0-0.234-0.156-0.391-0.39-0.391h-2.729
		c-0.429,0-0.78-0.351-0.78-0.779v-1.949c0-0.43,0.352-0.78,0.78-0.78h2.729c0.233,0,0.39-0.156,0.39-0.39v-6.044
		c0-0.429,0.353-0.779,0.78-0.779h1.95c0.429,0,0.779,0.351,0.779,0.779v6.044c0,0.233,0.156,0.39,0.389,0.39H249.386z"/>
	<path fill="#2C314F" d="M253.09,107.902c0-0.431,0.352-0.781,0.779-0.781h1.949c0.43,0,0.779,0.351,0.779,0.781v11.696
		c0,2.261,1.6,3.898,4.289,3.898c2.417,0,4.29-1.442,4.29-3.704v-11.891c0-0.431,0.351-0.781,0.779-0.781h1.949
		c0.429,0,0.779,0.351,0.779,0.781v17.934c0,0.43-0.351,0.78-0.779,0.78h-1.715c-0.234,0-0.391-0.117-0.546-0.273
		c-0.235-0.272-0.586-0.623-0.975-0.623c-1.132,0-1.288,1.286-4.173,1.286c-4.406,0-7.407-3.119-7.407-7.407V107.902z"/>
	<path fill="#2C314F" d="M288.844,114.139c0.117,1.561,0.117,3.899,0,5.46c-0.311,4.094-3.314,7.407-7.409,7.407
		c-1.793,0-2.844-0.976-3.624-0.976c-0.586,0-0.858,0.235-0.858,0.976v6.629c0,0.428-0.352,0.779-0.78,0.779h-1.949
		c-0.429,0-0.779-0.352-0.779-0.779v-25.732c0-0.431,0.351-0.781,0.779-0.781h1.326c0.232,0,0.39,0.117,0.545,0.274
		c0.235,0.271,0.585,0.623,0.976,0.623c1.13,0,1.48-1.287,4.365-1.287C285.529,106.731,288.533,110.046,288.844,114.139z
		 M285.529,114.139c-0.155-2.066-1.793-3.898-4.482-3.898c-2.691,0-4.329,1.832-4.484,3.898c-0.117,1.6-0.117,3.86,0,5.46
		c0.155,2.066,1.793,3.898,4.484,3.898c2.689,0,4.327-1.832,4.482-3.898C285.646,117.999,285.646,115.738,285.529,114.139z"/>
</g>
<g>
	<linearGradient id="SVGID_1_" gradientUnits="userSpaceOnUse" x1="76.0537" y1="18.1055" x2="113.143" y2="18.1055">
		<stop  offset="0" style="stop-color:#5D9AFF"/>
		<stop  offset="0.2587" style="stop-color:#5B96FB"/>
		<stop  offset="0.5302" style="stop-color:#538AEE"/>
		<stop  offset="0.8067" style="stop-color:#4776D9"/>
		<stop  offset="1" style="stop-color:#3C63C6"/>
	</linearGradient>
	<polygon opacity="0.5" fill="url(#SVGID_1_)" points="121.621,25.279 104.729,25.285 53.458,25.301 61.073,11.349 61.474,10.95 
		61.795,10.91 107.899,10.91 	"/>
	<linearGradient id="SVGID_2_" gradientUnits="userSpaceOnUse" x1="56.6519" y1="18.3032" x2="80.8643" y2="66.728">
		<stop  offset="0" style="stop-color:#1E2343"/>
		<stop  offset="0.0869" style="stop-color:#222746"/>
		<stop  offset="0.4049" style="stop-color:#2A2F4D"/>
		<stop  offset="1" style="stop-color:#2C314F"/>
	</linearGradient>
	<path fill="url(#SVGID_2_)" d="M52.843,23.519c0.467-0.856,4.185-7.657,5.953-10.9c0.648-1.188,2.201-1.708,3.088-1.708
		c-0.773,0-0.887,0.857-0.6,1.44c0.269,0.545,20.796,40.915,26.335,51.851c0.858,1.694,0.233,3.097-1.034,3.097
		c-1.268,0-10.396,0-11.968,0c-1.571,0-2.787-0.786-3.466-2.138c-4.081-8.125-17.697-36.688-18.257-37.816
		C52.241,26.029,52.225,24.649,52.843,23.519z"/>
	<linearGradient id="SVGID_3_" gradientUnits="userSpaceOnUse" x1="15.1455" y1="70.8271" x2="50.1517" y2="129.6754">
		<stop  offset="0" style="stop-color:#3757A3"/>
		<stop  offset="0.0067" style="stop-color:#3859A9"/>
		<stop  offset="0.0308" style="stop-color:#3A5FB9"/>
		<stop  offset="0.0577" style="stop-color:#3C62C3"/>
		<stop  offset="0.0929" style="stop-color:#3C63C6"/>
		<stop  offset="0.1788" style="stop-color:#4A78D8"/>
		<stop  offset="0.2783" style="stop-color:#5588E7"/>
		<stop  offset="0.3894" style="stop-color:#5B92EF"/>
		<stop  offset="0.5347" style="stop-color:#5D95F2"/>
		<stop  offset="0.6413" style="stop-color:#5B91EF"/>
		<stop  offset="0.7357" style="stop-color:#5487E5"/>
		<stop  offset="0.8253" style="stop-color:#4875D6"/>
		<stop  offset="0.8884" style="stop-color:#3C63C6"/>
		<stop  offset="1" style="stop-color:#3757A3"/>
	</linearGradient>
	<path fill="url(#SVGID_3_)" d="M14.768,81.111l8.206-12.838l33.018,60.887c0,0-12.796,0-14.08,0c-1.116,0-2.003-0.962-2.645-2.071
		C38.624,125.979,14.768,81.111,14.768,81.111z"/>
	<linearGradient id="SVGID_4_" gradientUnits="userSpaceOnUse" x1="14.4868" y1="75.8491" x2="48.0703" y2="11.5711">
		<stop  offset="0" style="stop-color:#5D9AFF"/>
		<stop  offset="0.4941" style="stop-color:#5D95F2"/>
		<stop  offset="0.6397" style="stop-color:#5A91EF"/>
		<stop  offset="0.7804" style="stop-color:#5386E4"/>
		<stop  offset="0.9187" style="stop-color:#4672D3"/>
		<stop  offset="1" style="stop-color:#3C63C6"/>
	</linearGradient>
	<path fill="url(#SVGID_4_)" d="M42.235,10.976c1.47-0.006,9.938-0.066,10.901-0.066c0.964,0,2.14,1.527,1.379,2.903
		c-5.462,9.887-28.019,48.28-31.5,54.482c-3.521,6.276-8.366,12.612-4.34,19.968c-0.899-1.556-2.225-4.245-3.909-7.152
		c-4.97-8.578-4.877-17.366-0.049-26.12c4.123-7.477,20.001-33.831,24.429-41.858C39.903,11.763,40.764,10.983,42.235,10.976z"/>
	<linearGradient id="SVGID_5_" gradientUnits="userSpaceOnUse" x1="51.5015" y1="128.1377" x2="79.6274" y2="70.5333">
		<stop  offset="0" style="stop-color:#1E2343"/>
		<stop  offset="0.0458" style="stop-color:#232847"/>
		<stop  offset="0.1681" style="stop-color:#2A2F4D"/>
		<stop  offset="0.493" style="stop-color:#2C314F"/>
		<stop  offset="1" style="stop-color:#151A3A"/>
	</linearGradient>
	<path fill="url(#SVGID_5_)" d="M87.653,70.38c0,0-12.984,0-13.796,0c-1.141,0-2.013,0.926-2.829,2.541
		c-5.42,10.733-24.59,51.894-25.618,53.786c-0.622,1.146-1.606,2.453-3.151,2.453c1.82,0,14.154,0,15.574,0
		c1.42,0,2.212-0.748,2.872-1.973C61.364,125.965,87.653,70.38,87.653,70.38z"/>
	<linearGradient id="SVGID_6_" gradientUnits="userSpaceOnUse" x1="110.6631" y1="13.9893" x2="141.7031" y2="65.2915">
		<stop  offset="0" style="stop-color:#5D9AFF"/>
		<stop  offset="0.388" style="stop-color:#5D95F2"/>
		<stop  offset="0.5114" style="stop-color:#598FEC"/>
		<stop  offset="0.6825" style="stop-color:#4D7DDD"/>
		<stop  offset="0.8589" style="stop-color:#3C63C6"/>
		<stop  offset="1" style="stop-color:#3757A3"/>
	</linearGradient>
	<path fill="url(#SVGID_6_)" d="M97.657,10.91c1.183,0,7.803,0,12.044,0c6.896,0,12.778,4.469,16.881,10.975
		c0.789,1.251,18.237,36.328,18.237,36.328l-7.493,13.576c0,0-23.741-45.522-24.309-46.488
		C110.757,21.462,105.061,10.91,97.657,10.91z"/>
	<linearGradient id="SVGID_7_" gradientUnits="userSpaceOnUse" x1="147.2412" y1="62.1143" x2="109.4098" y2="127.4591">
		<stop  offset="0" style="stop-color:#5D9AFF"/>
		<stop  offset="0.3193" style="stop-color:#5D96F4"/>
		<stop  offset="0.3734" style="stop-color:#5D95F2"/>
		<stop  offset="0.5109" style="stop-color:#5A91EF"/>
		<stop  offset="0.6439" style="stop-color:#5386E4"/>
		<stop  offset="0.7746" style="stop-color:#4672D3"/>
		<stop  offset="0.8514" style="stop-color:#3C63C6"/>
		<stop  offset="1" style="stop-color:#3757A3"/>
	</linearGradient>
	<path fill="url(#SVGID_7_)" d="M140.233,49.322c3.829,7.234,6.205,11.496,7.178,13.261c3.667,6.659,3.262,12.955-0.436,20.185
		c-0.58,1.135-18.285,35.898-23.035,44.486c-0.631,1.141-1.521,1.784-2.365,1.784c-0.846,0-14.327,0-14.327,0
		s29.295-55.689,30.078-57.25C141.241,63.976,144.136,55.991,140.233,49.322z"/>
	<linearGradient id="SVGID_8_" gradientUnits="userSpaceOnUse" x1="82.0518" y1="68.5234" x2="111.5825" y2="127.3167">
		<stop  offset="0" style="stop-color:#1E2343"/>
		<stop  offset="0.0429" style="stop-color:#222746"/>
		<stop  offset="0.1997" style="stop-color:#2A2F4D"/>
		<stop  offset="0.493" style="stop-color:#2C314F"/>
		<stop  offset="0.7854" style="stop-color:#292E4D"/>
		<stop  offset="0.9604" style="stop-color:#212646"/>
		<stop  offset="1" style="stop-color:#1E2343"/>
	</linearGradient>
	<path fill="url(#SVGID_8_)" d="M73.857,70.38c1.859,0,14.563,0,14.563,0c1.934,0,3.031,1.009,3.987,2.756
		c6.023,10.998,24.82,51.244,25.869,53.189c0.72,1.333,1.684,2.713,3.298,2.713c-1.586,0-10.21,0-14.789,0
		c-2.03,0-3.126-0.634-4.077-2.394c-0.81-1.497-22.496-47.58-25.372-52.972C76.612,72.315,75.961,70.38,73.857,70.38z"/>
</g>
</svg>
